<svg width="60" height="32" viewBox="0 0 60 32" fill="none" xmlns="http://www.w3.org/2000/svg">
<rect x="0.5" y="0.5" width="59" height="31" rx="4.5" stroke="#333333"/>
<path d="M17.3511 22.196C18.2611 22.196 19.1431 21.832 19.8151 21.23L19.2691 20.376C18.7931 20.796 18.1631 21.132 17.4771 21.132C16.0771 21.132 15.1111 19.956 15.1111 18.22C15.1111 16.456 16.1191 15.28 17.5191 15.28C18.1071 15.28 18.5831 15.546 19.0311 15.952L19.6751 15.112C19.1431 14.622 18.4431 14.216 17.4491 14.216C15.5031 14.216 13.7951 15.672 13.7951 18.22C13.7951 20.726 15.3351 22.196 17.3511 22.196ZM22.8498 22.196C23.1998 22.196 23.3958 22.14 23.5778 22.084L23.4098 21.104C23.2558 21.132 23.1998 21.132 23.1438 21.132C22.9478 21.132 22.7798 20.978 22.7798 20.572V10.87H21.5058V20.488C21.5058 21.58 21.8838 22.196 22.8498 22.196ZM28.4383 22.196C30.3003 22.196 31.9523 20.726 31.9523 18.22C31.9523 15.672 30.3003 14.216 28.4383 14.216C26.5623 14.216 24.9103 15.672 24.9103 18.22C24.9103 20.726 26.5623 22.196 28.4383 22.196ZM28.4383 21.132C27.1083 21.132 26.2263 19.956 26.2263 18.22C26.2263 16.456 27.1083 15.28 28.4383 15.28C29.7543 15.28 30.6363 16.456 30.6363 18.22C30.6363 19.956 29.7543 21.132 28.4383 21.132ZM35.8942 22.196C37.6862 22.196 38.6522 21.174 38.6522 19.928C38.6522 18.486 37.4482 18.038 36.3422 17.618C35.4742 17.31 34.7042 17.03 34.7042 16.302C34.7042 15.714 35.1382 15.21 36.1042 15.21C36.7762 15.21 37.3222 15.504 37.8402 15.882L38.4562 15.07C37.8682 14.594 37.0282 14.216 36.0902 14.216C34.4382 14.216 33.4722 15.154 33.4722 16.358C33.4722 17.66 34.6342 18.164 35.6842 18.57C36.5242 18.878 37.4342 19.228 37.4342 19.998C37.4342 20.67 36.9302 21.202 35.9222 21.202C35.0122 21.202 34.3402 20.824 33.6822 20.292L33.0522 21.146C33.7662 21.734 34.8162 22.196 35.8942 22.196ZM43.521 22.196C44.557 22.196 45.355 21.846 46.027 21.412L45.565 20.558C45.005 20.936 44.403 21.174 43.675 21.174C42.219 21.174 41.239 20.124 41.141 18.514H46.265C46.307 18.318 46.321 18.052 46.321 17.786C46.321 15.602 45.229 14.216 43.297 14.216C41.547 14.216 39.881 15.742 39.881 18.22C39.881 20.712 41.491 22.196 43.521 22.196ZM41.127 17.59C41.295 16.092 42.247 15.238 43.311 15.238C44.515 15.238 45.201 16.064 45.201 17.59H41.127Z" fill="#333333"/>
</svg>
