<svg width="60" height="32" viewBox="0 0 60 32" fill="none" xmlns="http://www.w3.org/2000/svg">
<rect x="0.5" y="0.5" width="59" height="31" rx="4.5" stroke="#333333"/>
<path d="M12.4071 22V14.398H13.4431L13.5691 15.504H13.6111C14.2691 14.79 15.0671 14.216 15.9771 14.216C17.1391 14.216 17.7691 14.762 18.0631 15.658C18.8611 14.818 19.6591 14.216 20.5831 14.216C22.1371 14.216 22.8931 15.252 22.8931 17.184V22H21.6191V17.352C21.6191 15.924 21.1711 15.322 20.1911 15.322C19.6031 15.322 19.0011 15.714 18.2871 16.484V22H17.0131V17.352C17.0131 15.924 16.5651 15.322 15.5851 15.322C15.0111 15.322 14.3671 15.714 13.6811 16.484V22H12.4071ZM28.4341 22.196C26.4041 22.196 24.7941 20.712 24.7941 18.22C24.7941 15.742 26.4601 14.216 28.2101 14.216C30.1421 14.216 31.2341 15.602 31.2341 17.786C31.2341 18.052 31.2201 18.318 31.1781 18.514H26.0541C26.1521 20.124 27.1321 21.174 28.5881 21.174C29.3161 21.174 29.9181 20.936 30.4781 20.558L30.9401 21.412C30.2681 21.846 29.4701 22.196 28.4341 22.196ZM26.0401 17.59H30.1141C30.1141 16.064 29.4281 15.238 28.2241 15.238C27.1601 15.238 26.2081 16.092 26.0401 17.59ZM33.12 22V14.398H34.156L34.282 15.504H34.324C35.038 14.79 35.822 14.216 36.872 14.216C38.468 14.216 39.196 15.252 39.196 17.184V22H37.908V17.352C37.908 15.924 37.474 15.322 36.466 15.322C35.696 15.322 35.15 15.728 34.394 16.484V22H33.12ZM43.877 22.196C42.281 22.196 41.553 21.16 41.553 19.214V14.398H42.827V19.06C42.827 20.474 43.261 21.076 44.269 21.076C45.039 21.076 45.599 20.698 46.313 19.802V14.398H47.587V22H46.537L46.425 20.81H46.397C45.683 21.636 44.927 22.196 43.877 22.196Z" fill="#333333"/>
</svg>
